<mxfile host="app.diagrams.net" agent="Mozilla/5.0 (Windows NT 10.0; Win64; x64) AppleWebKit/537.36 (KHTML, like Gecko) Chrome/130.0.0.0 Safari/537.36" version="24.8.4">
  <diagram name="Page-1" id="44gdAaiBKx2btPwtAUlu">
    <mxGraphModel grid="1" page="1" gridSize="10" guides="1" tooltips="1" connect="1" arrows="1" fold="1" pageScale="1" pageWidth="850" pageHeight="1100" math="0" shadow="0">
      <root>
        <mxCell id="0" />
        <mxCell id="1" parent="0" />
        <mxCell id="dizoNctpc3FSv6nVu-gz-6" value="" style="edgeStyle=orthogonalEdgeStyle;rounded=0;orthogonalLoop=1;jettySize=auto;html=1;" edge="1" parent="1" source="dizoNctpc3FSv6nVu-gz-1" target="dizoNctpc3FSv6nVu-gz-3">
          <mxGeometry relative="1" as="geometry" />
        </mxCell>
        <mxCell id="dizoNctpc3FSv6nVu-gz-1" value="" style="ellipse;html=1;shape=startState;fillColor=#000000;strokeColor=#ff0000;" vertex="1" parent="1">
          <mxGeometry x="150" y="150" width="20" height="20" as="geometry" />
        </mxCell>
        <mxCell id="dizoNctpc3FSv6nVu-gz-9" value="" style="edgeStyle=orthogonalEdgeStyle;rounded=0;orthogonalLoop=1;jettySize=auto;html=1;" edge="1" parent="1" source="dizoNctpc3FSv6nVu-gz-3" target="dizoNctpc3FSv6nVu-gz-8">
          <mxGeometry relative="1" as="geometry" />
        </mxCell>
        <mxCell id="dizoNctpc3FSv6nVu-gz-29" value="book reservation" style="edgeLabel;html=1;align=center;verticalAlign=middle;resizable=0;points=[];" connectable="0" vertex="1" parent="dizoNctpc3FSv6nVu-gz-9">
          <mxGeometry x="-0.2462" y="11" relative="1" as="geometry">
            <mxPoint as="offset" />
          </mxGeometry>
        </mxCell>
        <mxCell id="dizoNctpc3FSv6nVu-gz-17" value="" style="edgeStyle=orthogonalEdgeStyle;rounded=0;orthogonalLoop=1;jettySize=auto;html=1;" edge="1" parent="1" source="dizoNctpc3FSv6nVu-gz-3" target="dizoNctpc3FSv6nVu-gz-16">
          <mxGeometry relative="1" as="geometry" />
        </mxCell>
        <mxCell id="dizoNctpc3FSv6nVu-gz-30" value="check in" style="edgeLabel;html=1;align=center;verticalAlign=middle;resizable=0;points=[];" connectable="0" vertex="1" parent="dizoNctpc3FSv6nVu-gz-17">
          <mxGeometry x="-0.8393" y="10" relative="1" as="geometry">
            <mxPoint x="12" as="offset" />
          </mxGeometry>
        </mxCell>
        <mxCell id="dizoNctpc3FSv6nVu-gz-3" value="Rooms available" style="rounded=1;whiteSpace=wrap;html=1;arcSize=40;fontColor=#000000;fillColor=#ffffc0;strokeColor=#ff0000;" vertex="1" parent="1">
          <mxGeometry x="210" y="140" width="120" height="40" as="geometry" />
        </mxCell>
        <mxCell id="dizoNctpc3FSv6nVu-gz-5" value="&lt;font style=&quot;font-size: 14px;&quot;&gt;Hotel Management System&lt;/font&gt;" style="shape=umlFrame;whiteSpace=wrap;html=1;pointerEvents=0;width=230;height=30;" vertex="1" parent="1">
          <mxGeometry x="60" y="70" width="600" height="620" as="geometry" />
        </mxCell>
        <mxCell id="dizoNctpc3FSv6nVu-gz-11" value="" style="edgeStyle=orthogonalEdgeStyle;rounded=0;orthogonalLoop=1;jettySize=auto;html=1;" edge="1" parent="1" source="dizoNctpc3FSv6nVu-gz-8" target="dizoNctpc3FSv6nVu-gz-10">
          <mxGeometry relative="1" as="geometry" />
        </mxCell>
        <mxCell id="dizoNctpc3FSv6nVu-gz-8" value="Rooms booked" style="rounded=1;whiteSpace=wrap;html=1;arcSize=40;fontColor=#000000;fillColor=#ffffc0;strokeColor=#ff0000;" vertex="1" parent="1">
          <mxGeometry x="450" y="140" width="120" height="40" as="geometry" />
        </mxCell>
        <mxCell id="dizoNctpc3FSv6nVu-gz-13" value="" style="edgeStyle=orthogonalEdgeStyle;rounded=0;orthogonalLoop=1;jettySize=auto;html=1;" edge="1" parent="1" source="dizoNctpc3FSv6nVu-gz-10" target="dizoNctpc3FSv6nVu-gz-12">
          <mxGeometry relative="1" as="geometry" />
        </mxCell>
        <mxCell id="dizoNctpc3FSv6nVu-gz-10" value="Checked in" style="rounded=1;whiteSpace=wrap;html=1;arcSize=40;fontColor=#000000;fillColor=#ffffc0;strokeColor=#ff0000;" vertex="1" parent="1">
          <mxGeometry x="430" y="260" width="120" height="40" as="geometry" />
        </mxCell>
        <mxCell id="dizoNctpc3FSv6nVu-gz-15" value="" style="edgeStyle=orthogonalEdgeStyle;rounded=0;orthogonalLoop=1;jettySize=auto;html=1;" edge="1" parent="1" source="dizoNctpc3FSv6nVu-gz-12" target="dizoNctpc3FSv6nVu-gz-14">
          <mxGeometry relative="1" as="geometry" />
        </mxCell>
        <mxCell id="dizoNctpc3FSv6nVu-gz-34" value="rooms leaning&amp;nbsp;" style="edgeLabel;html=1;align=center;verticalAlign=middle;resizable=0;points=[];" connectable="0" vertex="1" parent="dizoNctpc3FSv6nVu-gz-15">
          <mxGeometry x="-0.105" y="10" relative="1" as="geometry">
            <mxPoint x="30" y="5" as="offset" />
          </mxGeometry>
        </mxCell>
        <mxCell id="dizoNctpc3FSv6nVu-gz-12" value="Room occupied" style="rounded=1;whiteSpace=wrap;html=1;arcSize=40;fontColor=#000000;fillColor=#ffffc0;strokeColor=#ff0000;" vertex="1" parent="1">
          <mxGeometry x="430" y="380" width="120" height="40" as="geometry" />
        </mxCell>
        <mxCell id="dizoNctpc3FSv6nVu-gz-14" value="Room cleaned" style="rounded=1;whiteSpace=wrap;html=1;arcSize=40;fontColor=#000000;fillColor=#ffffc0;strokeColor=#ff0000;" vertex="1" parent="1">
          <mxGeometry x="430" y="500" width="120" height="40" as="geometry" />
        </mxCell>
        <mxCell id="dizoNctpc3FSv6nVu-gz-19" value="" style="edgeStyle=orthogonalEdgeStyle;rounded=0;orthogonalLoop=1;jettySize=auto;html=1;" edge="1" parent="1" source="dizoNctpc3FSv6nVu-gz-16" target="dizoNctpc3FSv6nVu-gz-18">
          <mxGeometry relative="1" as="geometry" />
        </mxCell>
        <mxCell id="dizoNctpc3FSv6nVu-gz-16" value="Room checked out" style="rounded=1;whiteSpace=wrap;html=1;arcSize=40;fontColor=#000000;fillColor=#ffffc0;strokeColor=#ff0000;" vertex="1" parent="1">
          <mxGeometry x="230" y="380" width="120" height="40" as="geometry" />
        </mxCell>
        <mxCell id="dizoNctpc3FSv6nVu-gz-18" value="Room under maintance" style="rounded=1;whiteSpace=wrap;html=1;arcSize=40;fontColor=#000000;fillColor=#ffffc0;strokeColor=#ff0000;" vertex="1" parent="1">
          <mxGeometry x="230" y="500" width="120" height="40" as="geometry" />
        </mxCell>
        <mxCell id="dizoNctpc3FSv6nVu-gz-23" value="" style="edgeStyle=orthogonalEdgeStyle;rounded=0;orthogonalLoop=1;jettySize=auto;html=1;" edge="1" parent="1" source="dizoNctpc3FSv6nVu-gz-20" target="dizoNctpc3FSv6nVu-gz-22">
          <mxGeometry relative="1" as="geometry" />
        </mxCell>
        <mxCell id="dizoNctpc3FSv6nVu-gz-20" value="Payment" style="rounded=1;whiteSpace=wrap;html=1;arcSize=40;fontColor=#000000;fillColor=#ffffc0;strokeColor=#ff0000;" vertex="1" parent="1">
          <mxGeometry x="230" y="620" width="120" height="40" as="geometry" />
        </mxCell>
        <mxCell id="dizoNctpc3FSv6nVu-gz-25" value="" style="edgeStyle=orthogonalEdgeStyle;rounded=0;orthogonalLoop=1;jettySize=auto;html=1;" edge="1" parent="1" source="dizoNctpc3FSv6nVu-gz-22" target="dizoNctpc3FSv6nVu-gz-24">
          <mxGeometry relative="1" as="geometry" />
        </mxCell>
        <mxCell id="dizoNctpc3FSv6nVu-gz-22" value="payment complete" style="rounded=1;whiteSpace=wrap;html=1;arcSize=40;fontColor=#000000;fillColor=#ffffc0;strokeColor=#ff0000;" vertex="1" parent="1">
          <mxGeometry x="430" y="620" width="120" height="40" as="geometry" />
        </mxCell>
        <mxCell id="dizoNctpc3FSv6nVu-gz-24" value="" style="ellipse;html=1;shape=endState;fillColor=#000000;strokeColor=#ff0000;" vertex="1" parent="1">
          <mxGeometry x="610" y="630" width="20" height="20" as="geometry" />
        </mxCell>
        <mxCell id="dizoNctpc3FSv6nVu-gz-28" value="" style="html=1;verticalAlign=bottom;endArrow=block;curved=0;rounded=0;exitX=0;exitY=0.5;exitDx=0;exitDy=0;entryX=0;entryY=0.5;entryDx=0;entryDy=0;" edge="1" parent="1" source="dizoNctpc3FSv6nVu-gz-16" target="dizoNctpc3FSv6nVu-gz-20">
          <mxGeometry x="-0.3649" y="-99" width="80" relative="1" as="geometry">
            <mxPoint x="189.99999999999977" y="400" as="sourcePoint" />
            <mxPoint x="189.99999999999977" y="640" as="targetPoint" />
            <Array as="points">
              <mxPoint x="160" y="400" />
              <mxPoint x="160" y="640" />
            </Array>
            <mxPoint as="offset" />
          </mxGeometry>
        </mxCell>
        <mxCell id="dizoNctpc3FSv6nVu-gz-38" value="&amp;nbsp; &amp;nbsp; &amp;nbsp; &amp;nbsp; &amp;nbsp; &amp;nbsp; payment" style="edgeLabel;html=1;align=center;verticalAlign=middle;resizable=0;points=[];" connectable="0" vertex="1" parent="dizoNctpc3FSv6nVu-gz-28">
          <mxGeometry x="-0.0655" y="10" relative="1" as="geometry">
            <mxPoint x="-60" y="2" as="offset" />
          </mxGeometry>
        </mxCell>
        <mxCell id="dizoNctpc3FSv6nVu-gz-31" value="check out" style="text;html=1;align=center;verticalAlign=middle;resizable=0;points=[];autosize=1;strokeColor=none;fillColor=none;" vertex="1" parent="1">
          <mxGeometry x="215" y="348" width="70" height="30" as="geometry" />
        </mxCell>
        <mxCell id="dizoNctpc3FSv6nVu-gz-32" value="rooms ready for&lt;div&gt;cleaning&lt;/div&gt;" style="text;html=1;align=center;verticalAlign=middle;resizable=0;points=[];autosize=1;strokeColor=none;fillColor=none;" vertex="1" parent="1">
          <mxGeometry x="280" y="430" width="110" height="40" as="geometry" />
        </mxCell>
        <mxCell id="dizoNctpc3FSv6nVu-gz-33" value="room occupied" style="text;html=1;align=center;verticalAlign=middle;resizable=0;points=[];autosize=1;strokeColor=none;fillColor=none;" vertex="1" parent="1">
          <mxGeometry x="480" y="318" width="100" height="30" as="geometry" />
        </mxCell>
        <mxCell id="dizoNctpc3FSv6nVu-gz-35" value="" style="html=1;verticalAlign=bottom;endArrow=block;curved=0;rounded=0;exitX=0.5;exitY=1;exitDx=0;exitDy=0;entryX=0.5;entryY=1;entryDx=0;entryDy=0;" edge="1" parent="1" source="dizoNctpc3FSv6nVu-gz-14" target="dizoNctpc3FSv6nVu-gz-18">
          <mxGeometry width="80" relative="1" as="geometry">
            <mxPoint x="300" y="630" as="sourcePoint" />
            <mxPoint x="380" y="630" as="targetPoint" />
            <Array as="points">
              <mxPoint x="490" y="570" />
              <mxPoint x="290" y="570" />
            </Array>
          </mxGeometry>
        </mxCell>
        <mxCell id="dizoNctpc3FSv6nVu-gz-36" value="mainatance" style="edgeLabel;html=1;align=center;verticalAlign=middle;resizable=0;points=[];" connectable="0" vertex="1" parent="dizoNctpc3FSv6nVu-gz-35">
          <mxGeometry x="-0.0148" y="9" relative="1" as="geometry">
            <mxPoint as="offset" />
          </mxGeometry>
        </mxCell>
        <mxCell id="dizoNctpc3FSv6nVu-gz-37" value="processing" style="text;html=1;align=center;verticalAlign=middle;resizable=0;points=[];autosize=1;strokeColor=none;fillColor=none;" vertex="1" parent="1">
          <mxGeometry x="350" y="608" width="80" height="30" as="geometry" />
        </mxCell>
      </root>
    </mxGraphModel>
  </diagram>
</mxfile>
